HIERARCHY
ROOT Hips
{
 OFFSET 0.000000 0.000000 0.000000
 CHANNELS 6 Xposition Yposition Zposition Yrotation Xrotation Zrotation
 JOINT Chest
 {
  OFFSET 0.000000 9.588913 -0.003946
  CHANNELS 3 Yrotation Xrotation Zrotation
  JOINT Chest2
  {
   OFFSET 0.000000 9.541882 0.008053
   CHANNELS 3 Yrotation Xrotation Zrotation
   JOINT Chest3
   {
    OFFSET 0.000000 9.501360 0.000000
    CHANNELS 3 Yrotation Xrotation Zrotation
    JOINT Chest4
    {
     OFFSET 0.000000 9.491660 0.000000
     CHANNELS 3 Yrotation Xrotation Zrotation
     JOINT Neck
     {
      OFFSET 0.000000 14.331917 0.000000
      CHANNELS 3 Yrotation Xrotation Zrotation
      JOINT Head
      {
       OFFSET 0.000000 8.884799 0.017034
       CHANNELS 3 Yrotation Xrotation Zrotation
       End Site
       {
        OFFSET 0.000000 16.896195 0.008993
       }
      }
     }
     JOINT RightCollar
     {
      OFFSET -2.923010 9.499495 0.000000
      CHANNELS 3 Yrotation Xrotation Zrotation
      JOINT RightShoulder
      {
       OFFSET -13.795216 0.000000 0.000000
       CHANNELS 3 Yrotation Xrotation Zrotation
       JOINT RightElbow
       {
        OFFSET -30.272209 0.000000 0.000000
        CHANNELS 3 Yrotation Xrotation Zrotation
        JOINT RightWrist
        {
         OFFSET -24.478199 0.000000 0.000000
         CHANNELS 3 Yrotation Xrotation Zrotation
         End Site
         {
          OFFSET -18.090752 0.000000 0.000000
         }
        }
       }
      }
     }
     JOINT LeftCollar
     {
      OFFSET 2.923010 9.499495 0.000000
      CHANNELS 3 Yrotation Xrotation Zrotation
      JOINT LeftShoulder
      {
       OFFSET 13.795216 0.000000 0.000000
       CHANNELS 3 Yrotation Xrotation Zrotation
       JOINT LeftElbow
       {
        OFFSET 30.272209 0.000000 0.000000
        CHANNELS 3 Yrotation Xrotation Zrotation
        JOINT LeftWrist
        {
         OFFSET 24.478199 0.000000 0.000000
         CHANNELS 3 Yrotation Xrotation Zrotation
         End Site
         {
          OFFSET 18.090752 0.000000 0.000000
         }
        }
       }
      }
     }
    }
   }
  }
 }
 JOINT RightHip
 {
  OFFSET -7.826875 0.019532 0.001973
  CHANNELS 3 Yrotation Xrotation Zrotation
  JOINT RightKnee
  {
   OFFSET 0.000000 -40.546152 -0.001885
   CHANNELS 3 Yrotation Xrotation Zrotation
   JOINT RightAnkle
   {
    OFFSET 0.000000 -39.417092 -0.003189
    CHANNELS 3 Yrotation Xrotation Zrotation
    JOINT RightToe
    {
     OFFSET 0.000000 -7.579396 17.243563
     CHANNELS 3 Yrotation Xrotation Zrotation
     End Site
     {
      OFFSET 0.000000 -1.500329 6.694466
     }
    }
   }
  }
 }
 JOINT LeftHip
 {
  OFFSET 7.826875 0.019532 0.001973
  CHANNELS 3 Yrotation Xrotation Zrotation
  JOINT LeftKnee
  {
   OFFSET 0.000000 -40.546152 -0.001885
   CHANNELS 3 Yrotation Xrotation Zrotation
   JOINT LeftAnkle
   {
    OFFSET 0.000000 -39.417092 -0.003189
    CHANNELS 3 Yrotation Xrotation Zrotation
    JOINT LeftToe
    {
     OFFSET 0.000000 -7.579396 17.243563
     CHANNELS 3 Yrotation Xrotation Zrotation
     End Site
     {
      OFFSET 0.000000 -1.500329 6.694466
     }
    }
   }
  }
 }
}
MOTION
Frames: 5
Frame Time: 0.008333
0.000000 87.345680 0.000000 0.000000 -5.767889 0.000000 0.000000 11.653876 0.000000 0.000000 -5.885988 0.000000 0.000000 -0.000000 0.000000 0.000000 -0.000000 0.000000 0.000000 12.528808 0.000000 0.000000 0.711711 0.000000 0.000000 -0.000000 0.000000 0.000000 -0.000000 0.000000 2.309063 -0.000000 0.000000 -2.309063 -0.000000 -0.000000 0.000000 -0.000000 0.000000 0.000000 0.000000 0.000000 -2.309063 0.000000 0.000000 2.309063 -0.000000 0.000000 0.000000 8.520374 0.000000 0.000000 1.905768 0.000000 -0.000000 -4.658254 0.000000 0.000000 -0.000000 0.000000 0.000000 8.520374 0.000000 0.000000 1.905768 0.000000 -0.000000 -4.658254 0.000000 0.000000 -0.000000 0.000000
19.299581 89.014250 -3.410347 41.157664 -9.479470 1.881870 1.105942 4.326228 2.082680 0.645000 2.527491 1.132767 0.814255 3.157319 1.420750 0.644999 2.527490 1.132767 -2.073741 14.009098 -1.613587 -1.799049 -11.001753 -1.214891 -4.678684 1.218913 -3.864390 1.407808 -1.116865 87.519622 3.334459 -6.386440 0.830772 3.021006 -3.580053 -5.957845 -4.304684 0.991688 0.040864 0.801684 -2.800503 -92.203701 -3.559801 1.166235 -1.532538 -2.616367 -4.698236 8.815068 6.961118 12.565427 -7.752149 -4.938894 3.000269 1.372858 -5.183486 -4.036955 4.932603 0.043151 -0.176493 0.037312 12.027528 9.718408 9.440251 8.197025 6.361520 3.228004 1.596545 -5.194743 -9.129231 0.105089 -0.223249 0.064800
19.401571 88.989525 -3.439668 40.923224 -9.542405 1.903274 1.161790 4.345990 2.038094 0.672811 2.522967 1.116476 0.848900 3.151608 1.400563 0.672810 2.522966 1.116476 -2.133728 14.033809 -1.639991 -1.856498 -10.975092 -1.229446 -4.697271 1.188002 -3.823298 1.451171 -1.099811 87.578955 3.556687 -6.551872 0.984190 3.025862 -3.574118 -5.840771 -4.306343 0.967854 0.071771 0.844391 -2.788845 -92.054653 -3.750716 1.210029 -1.706921 -2.717911 -4.742200 8.825029 6.898323 12.626715 -7.866527 -4.856878 2.988090 1.389972 -5.060520 -4.069501 4.987873 0.028433 -0.120615 0.034421 12.189315 9.927911 9.419183 8.190884 6.250873 3.171051 1.706741 -5.216496 -9.040122 0.067150 -0.195461 0.039093
19.515104 88.960707 -3.475668 40.681646 -9.590733 1.919695 1.218537 4.359224 1.999656 0.701284 2.516128 1.102376 0.884381 3.142999 1.383114 0.701284 2.516127 1.102376 -2.188502 14.056413 -1.669320 -1.907855 -10.950619 -1.248223 -4.707768 1.159219 -3.770976 1.528602 -1.083380 87.598792 3.776655 -6.637792 1.153223 3.016469 -3.549884 -5.694203 -4.306178 0.949822 0.092263 0.874676 -2.777913 -91.902906 -3.933625 1.195522 -1.902800 -2.804086 -4.786855 8.751851 6.856963 12.685524 -7.979399 -4.781035 2.960316 1.402362 -4.949307 -4.103207 5.051398 0.018076 -0.060702 0.033806 12.290604 10.106993 9.382667 8.194412 6.182254 3.120052 1.850234 -5.263135 -8.955233 0.031009 -0.163745 0.018836
19.632592 88.928471 -3.517875 40.443978 -9.608272 1.922827 1.264078 4.350055 1.974014 0.730450 2.507507 1.090300 0.920736 3.132159 1.368195 0.730449 2.507505 1.090299 -2.236465 14.074781 -1.700536 -1.951646 -10.930577 -1.270485 -4.708206 1.129520 -3.710415 1.640351 -1.068613 87.587777 3.990210 -6.639896 1.325232 2.994745 -3.503748 -5.530247 -4.301739 0.936853 0.104941 0.909708 -2.768739 -91.759148 -4.104527 1.135528 -2.114706 -2.870369 -4.828771 8.622272 6.831166 12.716348 -8.084141 -4.706422 2.921897 1.410430 -4.851925 -4.119755 5.120786 0.012153 -0.012287 0.035181 12.330789 10.245597 9.329984 8.205881 6.142063 3.078436 2.006393 -5.312707 -8.878217 0.007831 -0.148307 0.008569
